:SAMPLES-PER-SECOND 30
:FULLY-SPECIFIED
:DEGREES
285
root  11.9971 37.3237 3.41712 144.471 -63.1433 -156.321
RightUpLeg  -38.9173 -4.13198 -12.0611
RightLeg  33.3195 0.0298103 -0.20392
RightFoot  36.3419 -12.0907 27.5391
RightToes  -5.28226e-011 1.30204e-014 -6.03759e-014
Spine  28.8767 -6.03591 -28.1005
Spine1  -0.807251 -17.1983 30.4849
HEad  -1.10214 59.4429 0.625073
LeftShoulder1  2.02339 -4.32266 -19.2981
LeftArm  -22.1509 48.0047 -42.2602
LeftForeArm  -50.3847 3.95726 -6.40618
LeftHand  1.07056 9.48927 29.5878
RightShoulder  0.290569 -2.20667 15.9817
RightArm  -12.329 -19.9615 59.5987
RightForeArm  -22.2492 38.9005 10.269
RightHand  -1.08161 -0.651602 -26.2246
LeftUpLeg  12.2393 7.81983 34.488
LeftLeg  28.6444 9.32303 5.82551
LeftFoot  -14.0242 -0.734211 -33.8296
LeftToes  -2.75829e-010 5.07641e-011 -5.51782e-011
286
root  12.1054 38.5923 4.04786 143.459 -64.337 -152.651
RightUpLeg  -36.4124 -6.98716 -13.7934
RightLeg  18.5845 0.448242 -0.105916
RightFoot  35.0397 -10.5419 24.87
RightToes  -5.28226e-011 1.30204e-014 -6.03759e-014
Spine  28.9096 -6.48925 -23.8119
Spine1  -2.4157 -15.5356 27.2072
HEad  -5.1171 54.2475 -0.230044
LeftShoulder1  1.48436 -2.66091 -17.4542
LeftArm  -19.3305 39.3736 -35.7611
LeftForeArm  -43.1614 5.96594 -6.82161
LeftHand  0.898363 8.83395 29.5644
RightShoulder  0.667479 -0.772216 17.8972
RightArm  -15.5543 -28.2155 57.6357
RightForeArm  -21.074 44.6267 12.416
RightHand  -1.02932 -0.877619 -26.1725
LeftUpLeg  11.6837 8.85295 33.5503
LeftLeg  21.1634 10.1564 4.85637
LeftFoot  -7.86415 1.08417 -33.2644
LeftToes  -2.75829e-010 5.07641e-011 -5.51782e-011
287
root  12.2251 39.6051 4.66772 140.851 -67.4801 -147.085
RightUpLeg  -32.94 -10.4787 -17.1696
RightLeg  6.10365 -1.68678 -1.76161
RightFoot  32.9848 -7.25842 18.2887
RightToes  -5.28226e-011 1.30204e-014 -6.03759e-014
Spine  27.1411 -5.65312 -16.3395
Spine1  -3.31693 -11.7111 21.5841
HEad  -8.05263 42.6656 -0.770909
LeftShoulder1  1.06599 -0.725798 -18.7912
LeftArm  -18.721 23.0289 -29.5304
LeftForeArm  -36.1727 6.16376 -7.23223
LeftHand  0.719411 8.08656 30.1544
RightShoulder  1.32395 1.39103 20.7258
RightArm  -19.1759 -39.5242 54.0186
RightForeArm  -22.3675 50.9911 15.3701
RightHand  -1.16813 -0.487417 -27.3584
LeftUpLeg  8.90244 10.6751 32.2196
LeftLeg  15.3913 7.21445 3.69593
LeftFoot  -1.89705 2.79797 -32.8728
LeftToes  -2.75829e-010 5.07641e-011 -5.51782e-011
288
root  12.2933 40.1523 5.20907 137.549 -71.533 -141.135
RightUpLeg  -30.1095 -16.2161 -21.1622
RightLeg  0.377686 -3.26926 -2.84239
RightFoot  29.1917 -6.41389 17.8962
RightToes  -5.28226e-011 1.30204e-014 -6.03759e-014
Spine  24.1343 -3.85731 -6.60792
Spine1  -3.8827 -6.17099 12.0296
HEad  -7.1434 25.8028 1.73497
LeftShoulder1  0.712777 0.98016 -21.7846
LeftArm  -16.4849 2.7232 -27.3408
LeftForeArm  -36.9303 6.3082 -9.33735
LeftHand  0.841269 8.40167 31.4447
RightShoulder  1.98899 3.25483 23.3177
RightArm  -20.3629 -50.169 52.2375
RightForeArm  -25.5503 51.0307 15.6454
RightHand  -1.13251 -0.55841 -26.8077
LeftUpLeg  4.40957 10.4642 29.4071
LeftLeg  13.4403 4.96744 3.4305
LeftFoot  1.60567 3.75391 -32.3591
LeftToes  -2.75829e-010 5.07641e-011 -5.51782e-011
289
root  12.3881 40.2932 5.6881 136.381 -74.2545 -138.813
RightUpLeg  -27.8991 -18.9721 -26.0882
RightLeg  1.96915 -4.941 -3.13162
RightFoot  25.3137 -6.69017 20.5137
RightToes  -5.28226e-011 1.30204e-014 -6.03759e-014
Spine  22.9659 -0.71766 3.89978
Spine1  -3.92277 0.799114 -1.05486
HEad  -7.29691 7.02267 6.1644
LeftShoulder1  -0.0974171 3.97194 -19.2894
LeftArm  -15.1228 -15.1587 -37.3856
LeftForeArm  -39.5196 4.45441 -10.6946
LeftHand  0.83416 8.33353 31.7996
RightShoulder  2.26222 3.89912 24.4914
RightArm  -18.2827 -57.6695 52.642
RightForeArm  -26.113 47.7355 13.9579
RightHand  -1.01509 -0.409952 -23.5981
LeftUpLeg  0.946986 7.24209 26.3812
LeftLeg  14.7955 6.69976 3.55747
LeftFoot  2.2199 3.82244 -31.5046
LeftToes  -2.75829e-010 5.07641e-011 -5.51782e-011
290
root  12.5394 40.1828 5.94855 140.78 -74.2642 -143.527
RightUpLeg  -28.2491 -14.0837 -30.401
RightLeg  10.9261 -9.21172 -4.72286
RightFoot  23.4753 -4.83871 15.883
RightToes  -5.28226e-011 1.30204e-014 -6.03759e-014
Spine  25.0335 2.72462 10.8781
Spine1  -4.20187 7.1395 -11.1896
HEad  -10.929 -6.53414 8.93829
LeftShoulder1  -0.831845 7.37324 -14.0947
LeftArm  -19.5837 -20.1866 -54.0198
LeftForeArm  -37.3956 -5.8123 -8.1799
LeftHand  0.407306 6.87827 30.7731
RightShoulder  1.96756 2.99301 24.1676
RightArm  -12.8841 -58.2905 48.4087
RightForeArm  -23.4722 43.6049 12.0702
RightHand  -1.25915 0.953815 -22.8831
LeftUpLeg  0.416151 6.04676 24.8604
LeftLeg  16.6906 8.4705 3.76935
LeftFoot  1.20515 3.47966 -31.009
LeftToes  -2.75829e-010 5.07641e-011 -5.51782e-011
291
root  12.6571 39.8913 5.8057 148.32 -71.8851 -151.429
RightUpLeg  -32.7142 -4.54397 -32.6401
RightLeg  25.362 -14.1036 -6.92945
RightFoot  24.5412 -1.84479 6.2909
RightToes  -5.28226e-011 1.30204e-014 -6.03759e-014
Spine  26.9038 4.22453 8.39722
Spine1  -5.22664 8.2216 -10.7072
HEad  -13.0746 -5.32138 6.77075
LeftShoulder1  -0.624555 6.67559 -12.5756
LeftArm  -25.5971 -4.8717 -59.405
LeftForeArm  -39.6382 -32.7312 -9.08757
LeftHand  0.30682 6.52294 30.3009
RightShoulder  1.42492 1.39384 22.9547
RightArm  -3.07485 -45.8485 37.1309
RightForeArm  -26.3166 35.3308 9.17487
RightHand  -1.44635 1.2729 -25.067
LeftUpLeg  1.94876 8.31693 24.9724
LeftLeg  17.3178 8.02584 3.82573
LeftFoot  -0.848044 2.97925 -31.6579
LeftToes  -2.75829e-010 5.07641e-011 -5.51782e-011
292
root  12.7334 39.389 5.38941 154.12 -68.7604 -157.082
RightUpLeg  -38.42 -3.53964 -27.9863
RightLeg  36.7483 -8.61681 -7.06632
RightFoot  27.6313 -1.27912 4.10058
RightToes  -5.28226e-011 1.30204e-014 -6.03759e-014
Spine  26.368 3.36455 -3.2636
Spine1  -6.29459 3.33206 0.997595
HEad  -11.8509 10.7467 0.44477
LeftShoulder1  0.423339 1.83107 -16.4357
LeftArm  -39.1441 20.3926 -50.5302
LeftForeArm  -34.8547 -55.8909 -18.5598
LeftHand  0.682247 7.7944 31.8468
RightShoulder  0.999563 0.127142 21.329
RightArm  2.03561 -20.1472 32.163
RightForeArm  -31.9912 23.4187 7.81748
RightHand  -1.47006 0.791833 -27.2916
LeftUpLeg  3.41916 10.0914 25.9266
LeftLeg  18.2263 7.24441 3.71057
LeftFoot  -4.35512 2.10262 -33.1866
LeftToes  -2.75829e-010 5.07641e-011 -5.51782e-011
293
root  12.9366 38.708 4.98203 156.092 -66.3925 -159.155
RightUpLeg  -40.7889 -5.26667 -21.5442
RightLeg  40.7485 -3.79945 -3.84209
RightFoot  30.5994 -3.84211 10.5526
RightToes  -5.28226e-011 1.30204e-014 -6.03759e-014
Spine  26.3265 1.08675 -15.868
Spine1  -6.53123 -3.37758 15.3947
HEad  -11.0028 31.0301 -4.97665
LeftShoulder1  1.77773 -2.73216 -22.5584
LeftArm  -38.482 41.9941 -38.3959
LeftForeArm  -35.0093 -59.6249 -22.1872
LeftHand  0.906131 8.49337 32.7758
RightShoulder  0.650503 -0.940286 18.9733
RightArm  -7.78787 4.55564 39.3991
RightForeArm  -23.7796 13.1318 10.4264
RightHand  -1.62642 0.975197 -29.2887
LeftUpLeg  3.29837 9.02362 27.275
LeftLeg  21.7536 6.87034 3.42228
LeftFoot  -8.85546 0.822842 -34.411
LeftToes  -2.75829e-010 5.07641e-011 -5.51782e-011
294
root  13.3066 37.8965 4.64846 155.341 -65.4853 -158.682
RightUpLeg  -39.8262 -7.48619 -15.9582
RightLeg  37.6706 -0.32956 -0.577855
RightFoot  33.2538 -6.51235 16.4125
RightToes  -5.28226e-011 1.30204e-014 -6.03759e-014
Spine  27.8733 -0.35635 -21.8105
Spine1  -6.00983 -7.37043 22.4925
HEad  -12.8046 42.7137 -7.28788
LeftShoulder1  2.204 -4.25792 -22.0915
LeftArm  -23.0856 51.0026 -31.2554
LeftForeArm  -38.7728 -52.329 -17.0087
LeftHand  0.777191 8.16576 31.4604
RightShoulder  0.383005 -1.81227 16.3954
RightArm  -14.3773 11.8537 50.5154
RightForeArm  -19.5797 19.8721 8.47988
RightHand  -1.66733 1.25978 -28.7114
LeftUpLeg  0.909964 7.47613 28.8239
LeftLeg  27.8165 4.91028 3.14434
LeftFoot  -13.1336 -0.475378 -34.5209
LeftToes  -2.75829e-010 5.07641e-011 -5.51782e-011
295
root  13.6473 37.0347 4.33263 155.56 -66.8144 -158.375
RightUpLeg  -37.5448 -7.87189 -14.9106
RightLeg  31.8003 3.24764 1.93923
RightFoot  35.8517 -7.03264 16.6225
RightToes  -5.28226e-011 1.30204e-014 -6.03759e-014
Spine  28.9384 0.278244 -19.5215
Spine1  -5.89033 -6.13173 19.6076
HEad  -15.4544 38.7578 -6.39378
LeftShoulder1  1.83494 -3.88529 -18.2451
LeftArm  -5.51568 41.3574 -27.0869
LeftForeArm  -39.2175 -41.0389 -11.5997
LeftHand  0.449814 7.01004 31.2441
RightShoulder  0.542425 -1.07911 15.7102
RightArm  -22.6051 0.424407 52.5318
RightForeArm  -20.2683 41.6551 11.2259
RightHand  -1.35166 0.674625 -25.6433
LeftUpLeg  -3.62985 4.00917 28.5826
LeftLeg  34.1302 4.35735 3.57156
LeftFoot  -16.4753 -1.4626 -33.8604
LeftToes  -2.75829e-010 5.07641e-011 -5.51782e-011
